<?xml version="1.0" encoding="iso-8859-1"?>
<!-- Generator: Adobe Illustrator 19.0.0, SVG Export Plug-In . SVG Version: 6.00 Build 0)  -->
<svg version="1.1" id="Layer_1" xmlns="http://www.w3.org/2000/svg" xmlns:xlink="http://www.w3.org/1999/xlink" x="0px" y="0px"
	 viewBox="0 0 512 512" style="enable-background:new 0 0 512 512;" xml:space="preserve">
<g>
	<g>
		<rect width="66.783" height="33.391"/>
	</g>
</g>
<g>
	<g>
		<rect x="200.348" y="478.609" width="55.652" height="33.391"/>
	</g>
</g>
<g>
	<g>
		<rect x="389.565" y="478.609" width="55.652" height="33.391"/>
	</g>
</g>
<g>
	<g>
		<rect x="445.217" y="422.957" width="33.391" height="55.652"/>
	</g>
</g>
<g>
	<g>
		<polygon points="389.565,389.565 256,389.565 200.348,389.565 166.957,389.565 166.957,478.609 200.348,478.609 200.348,422.957 
			256,422.957 256,478.609 289.391,478.609 289.391,422.957 356.174,422.957 356.174,478.609 389.565,478.609 389.565,422.957 
			445.217,422.957 445.217,389.565 		"/>
	</g>
</g>
<g>
	<g>
		<path d="M100.174,89.044V33.391H66.783v89.044h33.391v100.174h33.391v166.956h33.391v-33.391h278.261v-33.391h33.391V222.609H512
			V89.044H100.174z M378.435,233.739H233.739v-33.391h144.696V233.739z"/>
	</g>
</g>
<g>
</g>
<g>
</g>
<g>
</g>
<g>
</g>
<g>
</g>
<g>
</g>
<g>
</g>
<g>
</g>
<g>
</g>
<g>
</g>
<g>
</g>
<g>
</g>
<g>
</g>
<g>
</g>
<g>
</g>
</svg>
